<svg xmlns="http://www.w3.org/2000/svg" xmlns:xlink="http://www.w3.org/1999/xlink" width="500" zoomAndPan="magnify" viewBox="0 0 375 374.999991" height="500" preserveAspectRatio="xMidYMid meet" version="1.0"><defs><clipPath id="06e3f96733"><path d="M 280 113 L 316.414062 113 L 316.414062 128 L 280 128 Z M 280 113 " clip-rule="nonzero"/></clipPath><clipPath id="49d046e236"><path d="M 58.414062 113 L 95 113 L 95 128 L 58.414062 128 Z M 58.414062 113 " clip-rule="nonzero"/></clipPath></defs><path fill="#5cb874" d="M 186.300781 46.605469 C 182.433594 46.605469 179.265625 43.441406 179.265625 39.570312 L 179.265625 17.519531 C 179.265625 13.648438 182.433594 10.484375 186.300781 10.484375 C 190.171875 10.484375 193.335938 13.648438 193.335938 17.519531 L 193.335938 39.570312 C 193.335938 43.441406 190.171875 46.605469 186.300781 46.605469 Z M 186.300781 46.605469 " fill-opacity="1" fill-rule="nonzero"/><g clip-path="url(#06e3f96733)"><path fill="#5cb874" d="M 309.71875 127.78125 L 287.667969 127.78125 C 283.796875 127.78125 280.632812 124.617188 280.632812 120.75 C 280.632812 116.878906 283.796875 113.714844 287.667969 113.714844 L 309.71875 113.714844 C 313.589844 113.714844 316.753906 116.878906 316.753906 120.75 C 316.753906 124.617188 313.589844 127.78125 309.71875 127.78125 Z M 309.71875 127.78125 " fill-opacity="1" fill-rule="nonzero"/></g><g clip-path="url(#49d046e236)"><path fill="#5cb874" d="M 87.503906 127.78125 L 65.449219 127.78125 C 61.582031 127.78125 58.414062 124.617188 58.414062 120.75 C 58.414062 116.878906 61.582031 113.714844 65.449219 113.714844 L 87.503906 113.714844 C 91.371094 113.714844 94.535156 116.878906 94.535156 120.75 C 94.535156 124.617188 91.371094 127.78125 87.503906 127.78125 Z M 87.503906 127.78125 " fill-opacity="1" fill-rule="nonzero"/></g><path fill="#5cb874" d="M 115.078125 76.785156 C 113.285156 76.785156 111.488281 76.078125 110.117188 74.707031 L 94.535156 59.125 C 91.792969 56.382812 91.792969 51.917969 94.535156 49.171875 C 97.28125 46.429688 101.746094 46.429688 104.492188 49.171875 L 120.070312 64.753906 C 122.816406 67.496094 122.816406 71.964844 120.070312 74.707031 C 118.664062 76.078125 116.871094 76.785156 115.078125 76.785156 Z M 115.078125 76.785156 " fill-opacity="1" fill-rule="nonzero"/><path fill="#5cb874" d="M 259.109375 76.785156 C 257.3125 76.785156 255.519531 76.078125 254.148438 74.707031 C 251.40625 71.964844 251.40625 67.496094 254.148438 64.753906 L 269.730469 49.171875 C 272.472656 46.429688 276.941406 46.429688 279.683594 49.171875 C 282.425781 51.917969 282.425781 56.382812 279.683594 59.125 L 264.101562 74.707031 C 262.730469 76.078125 260.9375 76.785156 259.109375 76.785156 Z M 259.109375 76.785156 " fill-opacity="1" fill-rule="nonzero"/><path fill="#5cb874" d="M 232.941406 244.800781 L 143.601562 244.800781 C 139.734375 244.800781 136.566406 241.636719 136.566406 237.765625 L 136.566406 233.933594 C 136.566406 218.703125 131.398438 203.613281 121.621094 190.25 C 111.207031 176.039062 105.6875 159.191406 105.6875 141.535156 C 105.6875 118.847656 115.183594 96.902344 131.75 81.355469 C 148.527344 65.597656 170.507812 57.683594 193.546875 59.125 C 236.210938 61.800781 270.152344 97.394531 270.855469 140.164062 C 271.171875 159.121094 265.226562 177.058594 253.65625 192.007812 C 244.863281 203.402344 240.007812 218.351562 240.007812 234.109375 L 240.007812 237.800781 C 239.972656 241.671875 236.84375 244.800781 232.941406 244.800781 Z M 150.601562 230.730469 L 226.011719 230.730469 C 226.679688 213.109375 232.480469 196.402344 242.542969 183.390625 C 252.144531 170.972656 257.066406 156.097656 256.820312 140.375 C 256.222656 104.886719 228.085938 75.339844 192.703125 73.160156 C 173.570312 71.964844 155.351562 78.507812 141.421875 91.589844 C 127.492188 104.675781 119.789062 122.4375 119.789062 141.535156 C 119.789062 156.203125 124.363281 170.164062 132.980469 181.949219 C 143.847656 196.824219 149.898438 213.636719 150.601562 230.730469 Z M 150.601562 230.730469 " fill-opacity="1" fill-rule="nonzero"/><path fill="#5cb874" d="M 233.785156 271.917969 L 142.792969 271.917969 C 138.925781 271.917969 135.757812 268.753906 135.757812 264.882812 C 135.757812 261.015625 138.925781 257.851562 142.792969 257.851562 L 233.75 257.851562 C 237.617188 257.851562 240.78125 261.015625 240.78125 264.882812 C 240.78125 268.753906 237.652344 271.917969 233.785156 271.917969 Z M 233.785156 271.917969 " fill-opacity="1" fill-rule="nonzero"/><path fill="#5cb874" d="M 188.269531 335.792969 C 166.007812 335.792969 147.859375 317.675781 147.859375 295.378906 L 147.859375 289.996094 C 147.859375 286.128906 151.023438 282.960938 154.890625 282.960938 L 221.613281 282.960938 C 225.484375 282.960938 228.648438 286.128906 228.648438 289.996094 L 228.648438 295.378906 C 228.683594 317.675781 210.570312 335.792969 188.269531 335.792969 Z M 161.996094 297.03125 C 162.839844 310.785156 174.308594 321.722656 188.269531 321.722656 C 202.234375 321.722656 213.699219 310.785156 214.542969 297.03125 Z M 161.996094 297.03125 " fill-opacity="1" fill-rule="nonzero"/><path fill="#5cb874" d="M 201.8125 244.800781 L 174.765625 244.800781 C 171.527344 244.800781 168.714844 242.621094 167.941406 239.488281 L 148.105469 160.492188 C 147.402344 157.714844 148.457031 154.796875 150.742188 153.105469 C 153.027344 151.417969 156.125 151.277344 158.585938 152.753906 L 170.824219 160.175781 L 182.046875 138.300781 C 183.242188 135.941406 185.667969 134.464844 188.304688 134.464844 C 190.945312 134.464844 193.371094 135.941406 194.566406 138.300781 L 205.785156 160.175781 L 218.027344 152.753906 C 220.453125 151.277344 223.546875 151.417969 225.871094 153.105469 C 228.15625 154.796875 229.210938 157.714844 228.507812 160.492188 L 208.671875 239.488281 C 207.863281 242.621094 205.046875 244.800781 201.8125 244.800781 Z M 180.25 230.730469 L 196.359375 230.730469 L 210.675781 173.683594 L 206.628906 176.144531 C 204.941406 177.164062 202.9375 177.445312 201.074219 176.917969 C 199.210938 176.390625 197.625 175.089844 196.710938 173.367188 L 188.304688 156.941406 L 179.898438 173.367188 C 179.019531 175.089844 177.4375 176.390625 175.539062 176.917969 C 173.675781 177.445312 171.632812 177.164062 169.980469 176.144531 L 165.9375 173.683594 Z M 180.25 230.730469 " fill-opacity="1" fill-rule="nonzero"/></svg>